<mxfile host="app.diagrams.net" modified="2022-03-20T22:25:09.880Z" agent="5.0 (Macintosh; Intel Mac OS X 10_15_7) AppleWebKit/605.1.15 (KHTML, like Gecko) Version/15.3 Safari/605.1.15" etag="on44AqhJrfyn6MiZMKWD" version="17.1.3" type="github">
  <diagram id="z6yHJpWlaKmJ-RltGOB4" name="Page-1">
    <mxGraphModel dx="946" dy="1814" grid="0" gridSize="10" guides="1" tooltips="1" connect="1" arrows="1" fold="1" page="1" pageScale="1" pageWidth="827" pageHeight="1169" math="0" shadow="0">
      <root>
        <mxCell id="0" />
        <mxCell id="1" parent="0" />
        <mxCell id="sODzC4HWJ8rynniA_-NJ-1" value="&lt;b&gt;Context of goal and success&amp;nbsp;&lt;br&gt;factors in terms of&lt;br&gt;&lt;/b&gt;" style="rounded=0;whiteSpace=wrap;html=1;" parent="1" vertex="1">
          <mxGeometry x="408.5" y="-965" width="181" height="31" as="geometry" />
        </mxCell>
        <mxCell id="sODzC4HWJ8rynniA_-NJ-67" style="edgeStyle=none;rounded=0;orthogonalLoop=1;jettySize=auto;html=1;entryX=1;entryY=0.75;entryDx=0;entryDy=0;" parent="1" edge="1">
          <mxGeometry relative="1" as="geometry">
            <mxPoint x="630" y="-967.5" as="sourcePoint" />
            <mxPoint x="630" y="-967.5" as="targetPoint" />
          </mxGeometry>
        </mxCell>
        <mxCell id="sODzC4HWJ8rynniA_-NJ-70" style="edgeStyle=none;rounded=0;orthogonalLoop=1;jettySize=auto;html=1;exitX=0;exitY=0.5;exitDx=0;exitDy=0;" parent="1" edge="1">
          <mxGeometry relative="1" as="geometry">
            <mxPoint x="570" y="-975" as="sourcePoint" />
            <mxPoint x="570" y="-975" as="targetPoint" />
          </mxGeometry>
        </mxCell>
        <mxCell id="sODzC4HWJ8rynniA_-NJ-78" value="&amp;nbsp;Clients &amp;nbsp;" style="strokeWidth=2;html=1;shape=mxgraph.flowchart.start_1;whiteSpace=wrap;fillColor=#f5f5f5;gradientColor=#b3b3b3;strokeColor=#666666;" parent="1" vertex="1">
          <mxGeometry x="104" y="-1112" width="130" height="60" as="geometry" />
        </mxCell>
        <mxCell id="sODzC4HWJ8rynniA_-NJ-95" value="Review the BusinessÂ &#xa;Strategy plan" style="swimlane;fontStyle=1;childLayout=stackLayout;horizontal=1;startSize=30;horizontalStack=0;resizeParent=1;resizeParentMax=0;resizeLast=0;collapsible=1;marginBottom=0;" parent="1" vertex="1">
          <mxGeometry x="430" y="-838" width="140" height="90" as="geometry" />
        </mxCell>
        <mxCell id="sODzC4HWJ8rynniA_-NJ-96" value="Content Strategy" style="text;strokeColor=none;fillColor=none;align=left;verticalAlign=middle;spacingLeft=4;spacingRight=4;overflow=hidden;points=[[0,0.5],[1,0.5]];portConstraint=eastwest;rotatable=0;" parent="sODzC4HWJ8rynniA_-NJ-95" vertex="1">
          <mxGeometry y="30" width="140" height="30" as="geometry" />
        </mxCell>
        <mxCell id="sODzC4HWJ8rynniA_-NJ-97" value="&amp; Implementation" style="text;strokeColor=none;fillColor=none;align=left;verticalAlign=middle;spacingLeft=4;spacingRight=4;overflow=hidden;points=[[0,0.5],[1,0.5]];portConstraint=eastwest;rotatable=0;" parent="sODzC4HWJ8rynniA_-NJ-95" vertex="1">
          <mxGeometry y="60" width="140" height="30" as="geometry" />
        </mxCell>
        <mxCell id="sODzC4HWJ8rynniA_-NJ-111" value="# of consultant helping Grow a strategic Business plan determined the cost." style="text;html=1;strokeColor=none;fillColor=none;align=center;verticalAlign=middle;whiteSpace=wrap;rounded=0;" parent="1" vertex="1">
          <mxGeometry x="190" y="-861" width="100" height="101" as="geometry" />
        </mxCell>
        <mxCell id="sODzC4HWJ8rynniA_-NJ-114" value="&lt;b&gt;&lt;u&gt;Finance&lt;br&gt;&lt;/u&gt;&lt;/b&gt;" style="rounded=0;whiteSpace=wrap;html=1;" parent="1" vertex="1">
          <mxGeometry x="407" y="-690" width="240" height="26" as="geometry" />
        </mxCell>
        <mxCell id="sODzC4HWJ8rynniA_-NJ-117" value="Andy" style="ellipse;whiteSpace=wrap;html=1;aspect=fixed;fillColor=#e3c800;fontColor=#000000;strokeColor=#B09500;" parent="1" vertex="1">
          <mxGeometry x="375" y="-712" width="43" height="43" as="geometry" />
        </mxCell>
        <mxCell id="sODzC4HWJ8rynniA_-NJ-130" value="This process is meant to&amp;nbsp;&lt;br&gt;reliable flow of leads that&lt;br&gt;would allow us to&amp;nbsp;&lt;br&gt;accelerate growth and put&amp;nbsp;&lt;br&gt;our client and our company&amp;nbsp;&lt;br&gt;on a faster tract to achieving&amp;nbsp;&lt;br&gt;3000k by then end of 2022." style="text;html=1;align=center;verticalAlign=middle;resizable=0;points=[];autosize=1;strokeColor=none;fillColor=none;fontStyle=1;strokeWidth=0;" parent="1" vertex="1">
          <mxGeometry x="615" y="-811" width="177" height="102" as="geometry" />
        </mxCell>
        <mxCell id="sODzC4HWJ8rynniA_-NJ-133" value="Den" style="ellipse;whiteSpace=wrap;html=1;aspect=fixed;fillColor=#e51400;strokeColor=#B20000;fontColor=#ffffff;" parent="1" vertex="1">
          <mxGeometry x="539.75" y="-1070.5" width="40.5" height="40.5" as="geometry" />
        </mxCell>
        <mxCell id="sODzC4HWJ8rynniA_-NJ-160" value="Key Functional Flow Map (KFFM)&lt;br&gt;Denise Tepie" style="text;html=1;strokeColor=none;fillColor=none;align=center;verticalAlign=middle;whiteSpace=wrap;rounded=0;fontStyle=1" parent="1" vertex="1">
          <mxGeometry x="400" y="-1150" width="150" height="10" as="geometry" />
        </mxCell>
        <mxCell id="sODzC4HWJ8rynniA_-NJ-195" style="edgeStyle=none;rounded=0;orthogonalLoop=1;jettySize=auto;html=1;exitX=0.5;exitY=1;exitDx=0;exitDy=0;fontSize=10;" parent="1" edge="1">
          <mxGeometry relative="1" as="geometry">
            <mxPoint x="495" y="-1080" as="sourcePoint" />
            <mxPoint x="495" y="-1080" as="targetPoint" />
          </mxGeometry>
        </mxCell>
        <mxCell id="sODzC4HWJ8rynniA_-NJ-196" style="edgeStyle=none;rounded=0;orthogonalLoop=1;jettySize=auto;html=1;exitX=0.5;exitY=1;exitDx=0;exitDy=0;fontSize=10;" parent="1" edge="1">
          <mxGeometry relative="1" as="geometry">
            <mxPoint x="495" y="-1080" as="sourcePoint" />
            <mxPoint x="495" y="-1080" as="targetPoint" />
          </mxGeometry>
        </mxCell>
        <mxCell id="sODzC4HWJ8rynniA_-NJ-209" value="Actual&lt;br&gt;1000K" style="rounded=0;whiteSpace=wrap;html=1;fontSize=10;fillColor=#FFFFFF;strokeWidth=0;" parent="1" vertex="1">
          <mxGeometry x="400" y="-1080" width="69" height="60" as="geometry" />
        </mxCell>
        <mxCell id="sODzC4HWJ8rynniA_-NJ-212" value="" style="shape=table;startSize=0;container=1;collapsible=0;childLayout=tableLayout;fontSize=10;strokeWidth=0;fillColor=#FFFFFF;" parent="1" vertex="1">
          <mxGeometry x="469" y="-1080" width="60" height="59.75" as="geometry" />
        </mxCell>
        <mxCell id="sODzC4HWJ8rynniA_-NJ-213" value="" style="shape=tableRow;horizontal=0;startSize=0;swimlaneHead=0;swimlaneBody=0;top=0;left=0;bottom=0;right=0;collapsible=0;dropTarget=0;fillColor=none;points=[[0,0.5],[1,0.5]];portConstraint=eastwest;fontSize=10;strokeWidth=0;" parent="sODzC4HWJ8rynniA_-NJ-212" vertex="1">
          <mxGeometry width="60" height="60" as="geometry" />
        </mxCell>
        <mxCell id="sODzC4HWJ8rynniA_-NJ-214" value="Expected&lt;br&gt;3000K" style="shape=partialRectangle;html=1;whiteSpace=wrap;connectable=0;overflow=hidden;fillColor=none;top=0;left=0;bottom=0;right=0;pointerEvents=1;fontSize=10;strokeWidth=0;" parent="sODzC4HWJ8rynniA_-NJ-213" vertex="1">
          <mxGeometry width="60" height="60" as="geometry">
            <mxRectangle width="60" height="60" as="alternateBounds" />
          </mxGeometry>
        </mxCell>
        <mxCell id="sODzC4HWJ8rynniA_-NJ-215" value="" style="shape=table;startSize=0;container=1;collapsible=0;childLayout=tableLayout;fontSize=10;strokeWidth=0;fillColor=#FFFFFF;fontStyle=0" parent="1" vertex="1">
          <mxGeometry x="530" y="-1080" width="60" height="59.5" as="geometry" />
        </mxCell>
        <mxCell id="sODzC4HWJ8rynniA_-NJ-216" value="" style="shape=tableRow;horizontal=0;startSize=0;swimlaneHead=0;swimlaneBody=0;top=0;left=0;bottom=0;right=0;collapsible=0;dropTarget=0;fillColor=none;points=[[0,0.5],[1,0.5]];portConstraint=eastwest;fontSize=10;strokeWidth=0;" parent="sODzC4HWJ8rynniA_-NJ-215" vertex="1">
          <mxGeometry width="60" height="60" as="geometry" />
        </mxCell>
        <mxCell id="sODzC4HWJ8rynniA_-NJ-217" value="" style="shape=partialRectangle;html=1;whiteSpace=wrap;connectable=0;overflow=hidden;fillColor=none;top=0;left=0;bottom=0;right=0;pointerEvents=1;fontSize=10;strokeWidth=0;" parent="sODzC4HWJ8rynniA_-NJ-216" vertex="1">
          <mxGeometry width="60" height="60" as="geometry">
            <mxRectangle width="60" height="60" as="alternateBounds" />
          </mxGeometry>
        </mxCell>
        <mxCell id="sODzC4HWJ8rynniA_-NJ-219" value="" style="endArrow=classic;html=1;rounded=0;fontSize=10;" parent="1" edge="1">
          <mxGeometry width="50" height="50" relative="1" as="geometry">
            <mxPoint x="241" y="-1082" as="sourcePoint" />
            <mxPoint x="396" y="-1082" as="targetPoint" />
          </mxGeometry>
        </mxCell>
        <mxCell id="sODzC4HWJ8rynniA_-NJ-220" value="Call from a client&amp;nbsp;" style="text;html=1;align=center;verticalAlign=middle;resizable=0;points=[];autosize=1;strokeColor=none;fillColor=none;fontSize=10;" parent="1" vertex="1">
          <mxGeometry x="269" y="-1102" width="87" height="16" as="geometry" />
        </mxCell>
        <mxCell id="sODzC4HWJ8rynniA_-NJ-222" value="Request for a proposal" style="text;html=1;strokeColor=none;fillColor=none;align=center;verticalAlign=middle;whiteSpace=wrap;rounded=0;fontSize=10;" parent="1" vertex="1">
          <mxGeometry x="282.5" y="-1073" width="60" height="30" as="geometry" />
        </mxCell>
        <mxCell id="sODzC4HWJ8rynniA_-NJ-224" value="" style="shape=table;startSize=0;container=1;collapsible=0;childLayout=tableLayout;fontSize=10;strokeWidth=0;fillColor=#FFFFFF;" parent="1" vertex="1">
          <mxGeometry x="408.5" y="-934" width="60" height="40" as="geometry" />
        </mxCell>
        <mxCell id="sODzC4HWJ8rynniA_-NJ-225" value="" style="shape=tableRow;horizontal=0;startSize=0;swimlaneHead=0;swimlaneBody=0;top=0;left=0;bottom=0;right=0;collapsible=0;dropTarget=0;fillColor=none;points=[[0,0.5],[1,0.5]];portConstraint=eastwest;fontSize=10;strokeWidth=0;" parent="sODzC4HWJ8rynniA_-NJ-224" vertex="1">
          <mxGeometry width="60" height="40" as="geometry" />
        </mxCell>
        <mxCell id="sODzC4HWJ8rynniA_-NJ-226" value="Risk &amp;amp;&amp;nbsp;&lt;br&gt;Return" style="shape=partialRectangle;html=1;whiteSpace=wrap;connectable=0;overflow=hidden;fillColor=none;top=0;left=0;bottom=0;right=0;pointerEvents=1;fontSize=10;strokeWidth=0;" parent="sODzC4HWJ8rynniA_-NJ-225" vertex="1">
          <mxGeometry width="60" height="40" as="geometry">
            <mxRectangle width="60" height="40" as="alternateBounds" />
          </mxGeometry>
        </mxCell>
        <mxCell id="sODzC4HWJ8rynniA_-NJ-227" value="" style="shape=table;startSize=0;container=1;collapsible=0;childLayout=tableLayout;fontSize=10;strokeWidth=0;fillColor=#FFFFFF;" parent="1" vertex="1">
          <mxGeometry x="470" y="-934" width="60" height="40" as="geometry" />
        </mxCell>
        <mxCell id="sODzC4HWJ8rynniA_-NJ-228" value="" style="shape=tableRow;horizontal=0;startSize=0;swimlaneHead=0;swimlaneBody=0;top=0;left=0;bottom=0;right=0;collapsible=0;dropTarget=0;fillColor=none;points=[[0,0.5],[1,0.5]];portConstraint=eastwest;fontSize=10;strokeWidth=0;" parent="sODzC4HWJ8rynniA_-NJ-227" vertex="1">
          <mxGeometry width="60" height="40" as="geometry" />
        </mxCell>
        <mxCell id="sODzC4HWJ8rynniA_-NJ-229" value="Profit" style="shape=partialRectangle;html=1;whiteSpace=wrap;connectable=0;overflow=hidden;fillColor=none;top=0;left=0;bottom=0;right=0;pointerEvents=1;fontSize=10;strokeWidth=0;" parent="sODzC4HWJ8rynniA_-NJ-228" vertex="1">
          <mxGeometry width="60" height="40" as="geometry">
            <mxRectangle width="60" height="40" as="alternateBounds" />
          </mxGeometry>
        </mxCell>
        <mxCell id="sODzC4HWJ8rynniA_-NJ-230" value="" style="shape=table;startSize=0;container=1;collapsible=0;childLayout=tableLayout;fontSize=10;strokeWidth=0;fillColor=#FFFFFF;" parent="1" vertex="1">
          <mxGeometry x="530" y="-934" width="60" height="40" as="geometry" />
        </mxCell>
        <mxCell id="sODzC4HWJ8rynniA_-NJ-231" value="" style="shape=tableRow;horizontal=0;startSize=0;swimlaneHead=0;swimlaneBody=0;top=0;left=0;bottom=0;right=0;collapsible=0;dropTarget=0;fillColor=none;points=[[0,0.5],[1,0.5]];portConstraint=eastwest;fontSize=10;strokeWidth=0;" parent="sODzC4HWJ8rynniA_-NJ-230" vertex="1">
          <mxGeometry width="60" height="40" as="geometry" />
        </mxCell>
        <mxCell id="sODzC4HWJ8rynniA_-NJ-232" value="Get it right&amp;nbsp;&lt;br&gt;the first 100%" style="shape=partialRectangle;html=1;whiteSpace=wrap;connectable=0;overflow=hidden;fillColor=none;top=0;left=0;bottom=0;right=0;pointerEvents=1;fontSize=10;strokeWidth=0;" parent="sODzC4HWJ8rynniA_-NJ-231" vertex="1">
          <mxGeometry width="60" height="40" as="geometry">
            <mxRectangle width="60" height="40" as="alternateBounds" />
          </mxGeometry>
        </mxCell>
        <mxCell id="sODzC4HWJ8rynniA_-NJ-234" style="edgeStyle=none;rounded=0;orthogonalLoop=1;jettySize=auto;html=1;exitX=1;exitY=0.25;exitDx=0;exitDy=0;fontSize=10;" parent="1" source="sODzC4HWJ8rynniA_-NJ-1" target="sODzC4HWJ8rynniA_-NJ-1" edge="1">
          <mxGeometry relative="1" as="geometry" />
        </mxCell>
        <mxCell id="sODzC4HWJ8rynniA_-NJ-239" value="" style="endArrow=classic;html=1;rounded=0;fontSize=10;" parent="1" edge="1">
          <mxGeometry width="50" height="50" relative="1" as="geometry">
            <mxPoint x="497" y="-1018" as="sourcePoint" />
            <mxPoint x="497" y="-970" as="targetPoint" />
          </mxGeometry>
        </mxCell>
        <mxCell id="sODzC4HWJ8rynniA_-NJ-240" value="" style="endArrow=classic;html=1;rounded=0;fontSize=10;" parent="1" edge="1">
          <mxGeometry width="50" height="50" relative="1" as="geometry">
            <mxPoint x="347" y="-954" as="sourcePoint" />
            <mxPoint x="400" y="-954" as="targetPoint" />
          </mxGeometry>
        </mxCell>
        <mxCell id="sODzC4HWJ8rynniA_-NJ-241" value="Its important to understand&amp;nbsp;&lt;br&gt;timing and rhythm in order&lt;br&gt;to creating &amp;nbsp;and &amp;nbsp;sustaining&lt;br&gt;and competitive advantage" style="text;html=1;strokeColor=none;fillColor=none;align=center;verticalAlign=middle;whiteSpace=wrap;rounded=0;fontSize=10;" parent="1" vertex="1">
          <mxGeometry x="206.5" y="-1029" width="136" height="146" as="geometry" />
        </mxCell>
        <mxCell id="sODzC4HWJ8rynniA_-NJ-243" value="Consulting Service" style="rounded=0;whiteSpace=wrap;html=1;fontSize=10;strokeWidth=0;fillColor=#FFFFFF;fontStyle=1" parent="1" vertex="1">
          <mxGeometry x="400" y="-1102" width="190" height="22" as="geometry" />
        </mxCell>
        <mxCell id="sODzC4HWJ8rynniA_-NJ-244" value="" style="endArrow=none;html=1;rounded=0;fontSize=10;" parent="1" edge="1">
          <mxGeometry width="50" height="50" relative="1" as="geometry">
            <mxPoint x="615" y="-1061" as="sourcePoint" />
            <mxPoint x="690" y="-1061" as="targetPoint" />
          </mxGeometry>
        </mxCell>
        <mxCell id="sODzC4HWJ8rynniA_-NJ-246" value="" style="endArrow=none;html=1;rounded=0;fontSize=10;" parent="1" edge="1">
          <mxGeometry width="50" height="50" relative="1" as="geometry">
            <mxPoint x="690" y="-951" as="sourcePoint" />
            <mxPoint x="690" y="-1062" as="targetPoint" />
          </mxGeometry>
        </mxCell>
        <mxCell id="sODzC4HWJ8rynniA_-NJ-248" value="" style="endArrow=classic;html=1;rounded=0;fontSize=10;" parent="1" edge="1">
          <mxGeometry width="50" height="50" relative="1" as="geometry">
            <mxPoint x="691" y="-952" as="sourcePoint" />
            <mxPoint x="615" y="-952" as="targetPoint" />
          </mxGeometry>
        </mxCell>
        <mxCell id="sODzC4HWJ8rynniA_-NJ-249" value="Bringing objective to decisions making process." style="text;html=1;strokeColor=none;fillColor=none;align=center;verticalAlign=middle;whiteSpace=wrap;rounded=0;fontSize=10;" parent="1" vertex="1">
          <mxGeometry x="704" y="-1023" width="111" height="30" as="geometry" />
        </mxCell>
        <mxCell id="sODzC4HWJ8rynniA_-NJ-254" value="" style="endArrow=classic;html=1;rounded=0;fontSize=10;" parent="1" edge="1">
          <mxGeometry width="50" height="50" relative="1" as="geometry">
            <mxPoint x="505" y="-738" as="sourcePoint" />
            <mxPoint x="505" y="-697" as="targetPoint" />
          </mxGeometry>
        </mxCell>
        <mxCell id="sODzC4HWJ8rynniA_-NJ-257" value="" style="endArrow=classic;html=1;rounded=0;fontSize=10;" parent="1" edge="1">
          <mxGeometry width="50" height="50" relative="1" as="geometry">
            <mxPoint x="316" y="-814" as="sourcePoint" />
            <mxPoint x="420" y="-791" as="targetPoint" />
          </mxGeometry>
        </mxCell>
        <mxCell id="sODzC4HWJ8rynniA_-NJ-258" value="Steven" style="ellipse;whiteSpace=wrap;html=1;aspect=fixed;fontSize=10;strokeWidth=0;fillColor=#008a00;strokeColor=#005700;fontColor=#ffffff;" parent="1" vertex="1">
          <mxGeometry x="550" y="-869" width="40" height="40" as="geometry" />
        </mxCell>
        <mxCell id="sODzC4HWJ8rynniA_-NJ-284" style="edgeStyle=none;rounded=0;orthogonalLoop=1;jettySize=auto;html=1;exitX=0.5;exitY=0;exitDx=0;exitDy=0;fontSize=10;" parent="1" source="sODzC4HWJ8rynniA_-NJ-95" target="sODzC4HWJ8rynniA_-NJ-95" edge="1">
          <mxGeometry relative="1" as="geometry" />
        </mxCell>
        <mxCell id="sODzC4HWJ8rynniA_-NJ-286" value="" style="endArrow=classic;html=1;rounded=0;fontSize=10;exitX=0.483;exitY=1.1;exitDx=0;exitDy=0;exitPerimeter=0;" parent="1" source="sODzC4HWJ8rynniA_-NJ-228" edge="1">
          <mxGeometry width="50" height="50" relative="1" as="geometry">
            <mxPoint x="481" y="-841" as="sourcePoint" />
            <mxPoint x="499" y="-844" as="targetPoint" />
          </mxGeometry>
        </mxCell>
        <mxCell id="sODzC4HWJ8rynniA_-NJ-289" style="edgeStyle=none;rounded=0;orthogonalLoop=1;jettySize=auto;html=1;exitX=1;exitY=0.5;exitDx=0;exitDy=0;fontSize=10;" parent="1" source="sODzC4HWJ8rynniA_-NJ-114" target="sODzC4HWJ8rynniA_-NJ-114" edge="1">
          <mxGeometry relative="1" as="geometry" />
        </mxCell>
        <mxCell id="sODzC4HWJ8rynniA_-NJ-296" style="edgeStyle=none;rounded=0;orthogonalLoop=1;jettySize=auto;html=1;exitX=1;exitY=0.5;exitDx=0;exitDy=0;fontSize=10;" parent="1" source="sODzC4HWJ8rynniA_-NJ-114" target="sODzC4HWJ8rynniA_-NJ-114" edge="1">
          <mxGeometry relative="1" as="geometry" />
        </mxCell>
        <mxCell id="sODzC4HWJ8rynniA_-NJ-297" value="Actual&lt;br&gt;1000K" style="rounded=0;whiteSpace=wrap;html=1;fontSize=10;strokeWidth=0;fillColor=#FFFFFF;" parent="1" vertex="1">
          <mxGeometry x="407" y="-662" width="120" height="61" as="geometry" />
        </mxCell>
        <mxCell id="sODzC4HWJ8rynniA_-NJ-298" value="Expected&lt;br&gt;3000K" style="rounded=0;whiteSpace=wrap;html=1;fontSize=10;strokeWidth=0;fillColor=#FFFFFF;" parent="1" vertex="1">
          <mxGeometry x="529" y="-662" width="118" height="60" as="geometry" />
        </mxCell>
        <mxCell id="sODzC4HWJ8rynniA_-NJ-300" value="Ted" style="ellipse;whiteSpace=wrap;html=1;aspect=fixed;fontSize=10;strokeWidth=0;fillColor=#e51400;fontColor=#ffffff;strokeColor=#B20000;" parent="1" vertex="1">
          <mxGeometry x="404" y="-869" width="46" height="46" as="geometry" />
        </mxCell>
        <mxCell id="sODzC4HWJ8rynniA_-NJ-301" value="Denise" style="ellipse;whiteSpace=wrap;html=1;aspect=fixed;fontSize=10;strokeWidth=0;fillColor=#f5f5f5;gradientColor=#b3b3b3;strokeColor=#666666;" parent="1" vertex="1">
          <mxGeometry x="536" y="-1077" width="48" height="48" as="geometry" />
        </mxCell>
        <mxCell id="WYRgVH5vkvXJwrXoep9p-1" value="" style="endArrow=classic;html=1;rounded=0;" edge="1" parent="1" source="sODzC4HWJ8rynniA_-NJ-130">
          <mxGeometry width="50" height="50" relative="1" as="geometry">
            <mxPoint x="588" y="-745" as="sourcePoint" />
            <mxPoint x="578" y="-788" as="targetPoint" />
          </mxGeometry>
        </mxCell>
      </root>
    </mxGraphModel>
  </diagram>
</mxfile>
